Coordinates
version=1
nRows=16
nColumns=36
inDegrees=yes

Units are S.I. units (second, meters, Newtons, ...)
If the header above contains a line with 'inDegrees', this indicates whether rotational values are in degrees (yes) or radians (no).

endheader
time	pelvis_tilt	pelvis_list	pelvis_rotation	pelvis_tx	pelvis_ty	pelvis_tz	hip_flexion_r	hip_adduction_r	hip_rotation_r	knee_angle_r	knee_angle_r_beta	ankle_angle_r	subtalar_angle_r	mtp_angle_r	hip_flexion_l	hip_adduction_l	hip_rotation_l	knee_angle_l	knee_angle_l_beta	ankle_angle_l	subtalar_angle_l	mtp_angle_l	lumbar_extension	lumbar_bending	lumbar_rotation	arm_flex_r	arm_add_r	arm_rot_r	elbow_flex_r	pro_sup_r	arm_flex_l	arm_add_l	arm_rot_l	elbow_flex_l	pro_sup_l
      2.55000000	     -2.10293019	     -3.88300795	     -2.61020778	     -0.35996289	      1.21122056	     -0.06478493	     -2.75990784	      4.78043192	      1.97292741	      0.57347427	      0.01000901	     -2.61583180	    -13.99557084	     -7.49999987	     -1.29109460	     -5.69545079	      5.93743751	      0.39322305	      0.00686304	      4.41080061	    -12.55511209	     -7.49999987	     -3.95974993	      3.71622108	     -6.72722771	     -4.32120779	     -4.48840241	     -5.91631822	     26.93276106	     74.58945212	      1.99805112	     -8.30640423	     12.69640529	     23.57454454	     68.41618636
      2.56666670	     -1.82696979	     -3.97826959	     -2.70123254	     -0.35996333	      1.21142538	     -0.06436658	     -3.09919605	      4.95367615	      2.07017585	      0.65641583	      0.01145662	     -2.58722739	    -13.61195702	     -7.49999987	     -1.61180254	     -5.81748568	      5.47550913	      0.41182143	      0.00718764	      4.85551574	    -11.72775129	     -7.49999987	     -4.15127415	      3.77681754	     -6.73941836	     -4.17524073	     -4.49611030	     -5.72420370	     26.52471999	     72.74222109	      1.80672628	     -8.17937289	     12.26823305	     23.68427972	     67.30086892
      2.58333330	     -1.75782388	     -4.10331386	     -2.83439228	     -0.35999899	      1.21418506	     -0.06480831	     -3.24936692	      5.12516924	      2.51963070	      0.64019587	      0.01117353	     -3.63394289	    -14.67422619	     -7.49999987	     -1.72963103	     -5.96447319	      5.41261342	      0.40519074	      0.00707191	      4.65463557	    -11.80837953	     -7.49999987	     -4.08915701	      3.87939330	     -6.65528250	     -4.48896560	     -4.70885133	     -5.10389448	     27.02191594	     73.11829713	      1.54946773	     -8.17149188	     12.31112615	     24.04364745	     67.74527116
      2.60000000	     -1.77046116	     -4.16743701	     -2.72333232	     -0.36014817	      1.20874002	     -0.06471587	     -3.32742940	      5.20121719	      2.71868846	      0.67688318	      0.01181384	     -3.99283448	    -14.61594867	     -7.49999987	     -1.66464732	     -6.03697520	      5.53881238	      0.42088408	      0.00734581	      4.63793666	    -12.11572943	     -7.49999987	     -3.93704713	      3.96718779	     -6.75875045	     -4.51011733	     -4.69248752	     -5.76908378	     26.78878709	     76.19626809	      1.28941393	     -7.99528041	     10.95920769	     24.20889360	     71.49797017
      2.61666670	     -1.79287926	     -4.11861554	     -2.57887361	     -0.36678040	      1.21115549	     -0.06810167	     -3.26283995	      5.12282228	      2.79995085	      0.66646771	      0.01163206	     -3.97308559	    -14.58301159	     -7.49999987	     -1.49399652	     -5.97871456	      5.58008709	      0.43092658	      0.00752109	      4.63499631	    -12.09192041	     -7.49999987	     -3.97443768	      3.97781933	     -6.74429131	     -4.42782182	     -4.72989637	     -5.77342828	     26.80546266	     76.19517012	      1.36944867	     -7.95329305	     10.95878452	     24.24584031	     71.49967137
      2.63333330	     -1.91958779	     -3.98289831	     -2.33480764	     -0.36731172	      1.21062119	     -0.06795538	     -3.01750171	      4.91664906	      3.03763119	      0.59825158	      0.01044146	     -3.71409218	    -14.56516197	     -7.49999987	     -1.13571102	     -5.78393429	      5.79202119	      0.43095365	      0.00752156	      4.53530285	    -11.99450431	     -7.49999987	     -4.14050669	      3.96186313	     -6.78758849	     -4.28931774	     -4.81464041	     -5.78617088	     26.82142912	     76.19183270	      1.69022221	     -7.88160713	     10.94873648	     24.38788153	     71.50560857
      2.65000000	     -1.99563018	     -3.81473263	     -1.92961986	     -0.36031162	      1.20809265	     -0.06526724	     -2.95144715	      4.74793440	      3.21558678	      0.55101156	      0.00961697	     -2.99575793	    -14.65822006	     -7.49999987	     -0.97074875	     -5.65884920	      6.07839393	      0.43595340	      0.00760882	      4.36301567	    -11.94894457	     -7.49999987	     -3.98097543	      3.69074918	     -6.78386133	     -4.55622583	     -4.70283707	     -5.80174379	     26.75304114	     76.18020818	      1.71208176	     -7.96073986	     10.91838052	     24.55254704	     71.52179150
      2.66666670	     -2.59459913	     -3.62400143	     -1.88182480	     -0.36720961	      1.20943709	     -0.06817594	     -2.14851271	      4.45232913	      2.82921196	      0.61164058	      0.01067514	     -1.69540251	    -13.63768520	     -7.49999987	     -0.22558873	     -5.43949988	      6.23077898	      0.44576022	      0.00777998	      4.15994641	    -12.37665157	     -7.49999987	     -3.24949771	      3.51849181	     -6.81801152	     -4.71588542	     -4.71957857	     -6.03859169	     26.83140970	     76.09537538	      1.45377007	     -7.98663548	     10.81110478	     25.16705889	     71.66797038
      2.68333330	     -2.55740641	     -3.55402600	     -1.61245761	     -0.36717704	      1.20958765	     -0.06870175	     -2.19621228	      4.33533968	      2.98031932	      0.51743003	      0.00903086	     -1.64886835	    -13.60310535	     -7.49999987	     -0.12577048	     -5.35845529	      6.32765700	      0.45321813	      0.00791015	      3.93596070	    -12.32103394	     -7.49999987	     -3.35357511	      3.45417456	     -6.94319461	     -4.66981751	     -4.71991355	     -6.05756683	     26.82029723	     76.08948204	      1.65554373	     -7.95905806	     10.79050308	     25.22974187	     71.68155471
      2.70000000	     -2.41522861	     -3.49906475	     -1.47103368	     -0.36075030	      1.20947003	     -0.06536679	     -2.42835915	      4.28191032	      3.00383684	      0.45408765	      0.00792532	     -1.41666801	    -13.61976295	     -7.49999987	     -0.33674336	     -5.34689659	      6.30775369	      0.43124423	      0.00752663	      3.74420542	    -12.30245964	     -7.49999987	     -3.24959139	      3.26396791	     -6.97729159	     -4.67397584	     -4.61992564	     -6.07407295	     26.85081323	     76.08281263	      1.60056254	     -7.98847080	     10.75671023	     25.23942874	     71.70098914
      2.71666670	     -2.71998669	     -3.47550056	     -1.39869618	     -0.36740580	      1.20623518	     -0.06900575	     -2.13237169	      4.23400900	      3.03710272	      0.42399584	      0.00740012	     -0.96194707	    -13.48812806	     -7.49999987	      0.03057660	     -5.30201565	      6.41745903	      0.42410614	      0.00740205	      3.70566944	    -12.44815345	     -7.49999987	     -2.74143680	      3.19333932	     -6.99258896	     -4.70209489	     -4.64894922	     -6.13639013	     27.22898173	     75.58590519	      1.45565276	     -7.99090743	     10.63068164	     25.63385399	     71.37575896
      2.73333330	     -2.50630100	     -3.49934079	     -1.22920165	     -0.36124115	      1.20921542	     -0.06563110	     -2.50906501	      4.32363734	      3.10863728	      0.37485184	      0.00654240	     -0.90752206	    -13.45152063	     -7.49999987	     -0.22750049	     -5.39914767	      6.43375844	      0.43304902	      0.00755813	      3.51233498	    -12.39693904	     -7.49999987	     -2.63298321	      3.00861203	     -7.03464379	     -4.82373066	     -4.54185431	     -6.13348403	     27.17843419	     75.58693512	      1.33992288	     -8.01869134	     10.60468811	     25.60728447	     71.38987950
      2.75000000	     -1.98108080	     -3.51223047	     -1.03339949	     -0.36154019	      1.20983031	     -0.06623321	     -3.25020949	      4.37155795	      2.78569788	      0.35712183	      0.00623295	     -0.31641933	    -12.55392096	     -7.49999987	     -0.87608179	     -5.45042488	      6.45162590	      0.38983534	      0.00680391	      3.65956029	    -12.14507847	     -7.49999987	     -3.21178006	      2.98263090	     -7.27272595	     -4.50101771	     -4.44601563	     -6.23210044	     26.84886640	     74.51137863	      1.33473458	     -8.04513831	     10.13670386	     25.67591706	     70.73023352
      2.76666670	     -1.99874905	     -3.53771880	     -0.95338649	     -0.36865217	      1.20962476	     -0.06917391	     -3.30386148	      4.42057359	      2.84449588	      0.36025500	      0.00628764	     -0.31948881	    -12.54965345	     -7.49999987	     -0.80812186	     -5.48485925	      6.45795725	      0.38760462	      0.00676498	      3.65405609	    -12.14269548	     -7.49999987	     -3.14455317	      2.91496168	     -7.27828526	     -4.39701752	     -4.48824230	     -6.23033577	     26.89569902	     74.51829265	      1.45140540	     -8.02808280	     10.12788604	     25.72316778	     70.74106992
      2.78333330	     -1.93825278	     -3.54936221	     -0.81913790	     -0.36165153	      1.20992962	     -0.06641493	     -3.52175242	      4.50839222	      3.06352274	      0.32106459	      0.00560363	     -0.42318312	    -12.49523795	     -7.49999987	     -0.96087420	     -5.53721207	      6.59119003	      0.37863998	      0.00660851	      3.50098909	    -12.03772678	     -7.49999987	     -2.95131559	      2.83858781	     -7.36408814	     -4.59723382	     -4.42589842	     -6.21141218	     26.85824183	     74.53362083	      1.39369775	     -8.05597383	     10.09953476	     25.70707009	     70.76748929
      2.80000000	     -1.92993621	     -3.63946768	     -0.84503809	     -0.36191473	      1.20951887	     -0.06626661	     -3.74424484	      4.66579764	      3.33063310	      0.31440028	      0.00548732	     -0.66145173	    -12.73997346	     -7.49999987	     -0.98104624	     -5.62842959	      6.54533396	      0.36667515	      0.00639969	      3.61967273	    -11.82258670	     -7.49999987	     -2.78270124	      2.89264939	     -7.70097099	     -4.62624003	     -4.48894573	     -5.60327867	     27.23718398	     73.38726039	      1.09787604	     -7.97659985	      9.44567306	     25.76359809	     70.22629054
